<?xml version="1.0" standalone="no"?>
<!DOCTYPE svg PUBLIC "-//W3C//DTD SVG 20010904//EN"
 "http://www.w3.org/TR/2001/REC-SVG-20010904/DTD/svg10.dtd">
<svg version="1.0" xmlns="http://www.w3.org/2000/svg"
 width="260.000000pt" height="260.000000pt" viewBox="0 0 260.000000 260.000000"
 preserveAspectRatio="xMidYMid meet">
<metadata>
Created by potrace 1.11, written by Peter Selinger 2001-2013
</metadata>
<g transform="translate(0.000000,260.000000) scale(0.100000,-0.100000)"
fill="#000000" stroke="none">
<path d="M0 1300 l0 -1300 1300 0 1300 0 0 1300 0 1300 -1300 0 -1300 0 0
-1300z m1490 825 c186 -42 310 -125 366 -247 26 -57 29 -73 29 -168 0 -80 -5
-117 -19 -155 -21 -54 -102 -147 -150 -172 l-30 -16 68 -34 c84 -42 149 -107
184 -181 25 -53 27 -67 27 -192 0 -133 -1 -136 -34 -207 -75 -160 -223 -250
-476 -288 -170 -25 -541 -17 -692 15 l-53 12 0 808 c0 762 1 809 18 814 15 4
124 20 212 30 19 2 134 3 255 1 160 -2 240 -8 295 -20z"/>
<path d="M1033 1893 l-23 -4 0 -216 0 -215 183 5 c136 3 197 9 241 23 109 33
166 118 152 224 -18 132 -145 191 -406 188 -69 0 -135 -3 -147 -5z"/>
<path d="M1010 965 l0 -257 208 4 c184 4 213 7 263 27 131 51 174 108 174 231
0 127 -51 187 -190 225 -42 12 -121 18 -257 22 l-198 6 0 -258z"/>
</g>
</svg>
